
    <svg width="300" height="445" viewBox="0 0 300 445" xmlns="http://www.w3.org/2000/svg">
      <!-- Background Card -->
      <rect width="300" height="445" rx="16" fill="#ffffff" stroke="#e2e8f0" stroke-width="2"/>
      
      <!-- Metro Ticket Header (Purple Theme) -->
      <path d="M 0 16 A 16 16 0 0 1 16 0 L 284 0 A 16 16 0 0 1 300 16 L 300 90 L 0 90 Z" fill="#714B67"/>
      
      <!-- Ticket Details -->
      <text x="150" y="35" font-family="Arial, sans-serif" font-size="16" font-weight="black" fill="#ffffff" text-anchor="middle">ODOO CAFE METRO-TICKET</text>
      <text x="150" y="55" font-family="Arial, sans-serif" font-size="11" fill="#f5f3f4" text-anchor="middle">Odoo HQ</text>
      <text x="150" y="72" font-family="Arial, sans-serif" font-size="10" fill="#e5e5e5" text-anchor="middle">Chennai</text>
      
      <!-- Ticket Details Grid -->
      <text x="25" y="120" font-family="Arial, sans-serif" font-size="10" font-weight="bold" fill="#94a3b8">ORDER NO</text>
      <text x="25" y="138" font-family="Arial, sans-serif" font-size="13" font-weight="black" fill="#1e293b">T-661</text>
      
      <text x="150" y="120" font-family="Arial, sans-serif" font-size="10" font-weight="bold" fill="#94a3b8" text-anchor="middle">TABLE NO</text>
      <text x="150" y="138" font-family="Arial, sans-serif" font-size="14" font-weight="black" fill="#714B67" text-anchor="middle">#3</text>
      
      <text x="275" y="120" font-family="Arial, sans-serif" font-size="10" font-weight="bold" fill="#94a3b8" text-anchor="end">DATE</text>
      <text x="275" y="138" font-family="Arial, sans-serif" font-size="11" fill="#475569" text-anchor="end">21/6/2026</text>
      
      <!-- Divider -->
      <line x1="20" y1="155" x2="280" y2="155" stroke="#e2e8f0" stroke-width="1.5" stroke-dasharray="4 4"/>
      
      <!-- Items Section -->
      
      <text x="25" y="180" font-family="Arial, sans-serif" font-size="12" fill="#334155">Cappuccino</text>
      <text x="170" y="180" font-family="Arial, sans-serif" font-size="12" fill="#334155" text-anchor="middle">x1</text>
      <text x="275" y="180" font-family="Arial, sans-serif" font-size="12" font-weight="bold" fill="#1e293b" text-anchor="end">₹150.00</text>
    
      
      <!-- Divider -->
      <line x1="20" y1="250" x2="280" y2="250" stroke="#e2e8f0" stroke-width="1.5" stroke-dasharray="4 4"/>
      
      <!-- Total Price Bar -->
      <rect x="20" y="265" width="260" height="40" rx="8" fill="#f8fafc"/>
      <text x="35" y="289" font-family="Arial, sans-serif" font-size="12" font-weight="bold" fill="#64748b">AMOUNT PAID</text>
      <text x="265" y="290" font-family="Arial, sans-serif" font-size="16" font-weight="black" fill="#714B67" text-anchor="end">₹157.50</text>
      
      <!-- Actual Scannable QR Code -->
      <g transform="translate(100, 305) scale(4.761904761904762)"><path fill="#ffffff" d="M0 0h21v21H0z"/><path stroke="#1e293b" d="M0 0.5h7m3 0h1m1 0h1m1 0h7M0 1.5h1m5 0h1m1 0h1m3 0h1m1 0h1m5 0h1M0 2.5h1m1 0h3m1 0h1m3 0h1m3 0h1m1 0h3m1 0h1M0 3.5h1m1 0h3m1 0h1m4 0h1m2 0h1m1 0h3m1 0h1M0 4.5h1m1 0h3m1 0h1m1 0h2m1 0h2m1 0h1m1 0h3m1 0h1M0 5.5h1m5 0h1m2 0h3m2 0h1m5 0h1M0 6.5h7m1 0h1m1 0h1m1 0h1m1 0h7M10 7.5h1M0 8.5h1m1 0h1m1 0h1m1 0h1m2 0h1m2 0h1m3 0h1m2 0h1M1 9.5h3m4 0h1m2 0h1m1 0h1m1 0h1m1 0h1m1 0h2M0 10.5h2m4 0h3m1 0h2m1 0h3m4 0h1M0 11.5h5m2 0h7m1 0h3m1 0h1M0 12.5h1m1 0h1m2 0h2m2 0h1m1 0h1m1 0h3m3 0h2M8 13.5h2m4 0h1m2 0h2M0 14.5h7m5 0h1m3 0h1m1 0h2M0 15.5h1m5 0h1m3 0h1m3 0h1m2 0h1m1 0h2M0 16.5h1m1 0h3m1 0h1m1 0h1m1 0h1m1 0h1m1 0h1m1 0h1m1 0h1m1 0h1M0 17.5h1m1 0h3m1 0h1m2 0h1m1 0h1m1 0h1m1 0h1m1 0h3M0 18.5h1m1 0h3m1 0h1m1 0h1m2 0h1m1 0h3m2 0h1m1 0h1M0 19.5h1m5 0h1m3 0h4m1 0h3m1 0h2M0 20.5h7m1 0h1m1 0h2m1 0h3m2 0h1m1 0h1"/>
</g>
      
      <text x="150" y="425" font-family="Arial, sans-serif" font-size="9" fill="#94a3b8" text-anchor="middle">SCAN FOR ENTRY / EXIT VALIDATION</text>
    </svg>
  